<svg id="Layer_1" enable-background="new 0 0 511.978 511.978" height="512" viewBox="0 0 511.978 511.978" width="512" xmlns="http://www.w3.org/2000/svg"><g><g><path d="m412.456 307.029h-333.668c-43.424 0-78.752-35.328-78.752-78.751 0-35.276 23.42-65.69 56.26-75.438 4.372-58.342 53.241-104.472 112.682-104.472 17.448 0 34.404 3.958 49.821 11.551 10.081-15.701 23.447-29.11 39.273-39.292 20.977-13.494 45.301-20.627 70.344-20.627 34.559 0 67.11 13.394 91.659 37.715 22.221 22.015 35.555 50.669 38.126 81.524 14.425 7.46 26.793 18.326 36.134 31.823 11.519 16.644 17.606 36.175 17.606 56.482 0 54.856-44.628 99.485-99.485 99.485zm-243.478-228.661c-45.767 0-83 37.233-83 83 0 .91.021 1.904.066 3.127l.508 13.786-13.695 1.657c-24.412 2.955-42.82 23.736-42.82 48.34 0 26.881 21.87 48.751 48.752 48.751h333.668c38.314 0 69.485-31.171 69.485-69.485 0-28.618-17.204-53.949-43.83-64.534l-9.357-3.72-.101-10.069c-.267-26.561-10.812-51.49-29.692-70.195-18.895-18.717-43.948-29.026-70.546-29.026-19.275 0-37.987 5.483-54.112 15.857-15.721 10.113-28.287 24.354-36.342 41.182l-7.574 15.823-14.454-9.938c-13.85-9.523-30.086-14.556-46.956-14.556z"/></g><g><path d="m241.005 333.499h30v80.334h-30z"/></g><g><path d="m301.009 353.5h30v45.332h-30z"/></g><g><path d="m361.013 343.5h30v30.002h-30z"/></g><g><path d="m361.013 403.503h30v80.334h-30z"/></g><g><path d="m421.017 333.499h30v30.002h-30z"/></g><g><path d="m421.017 393.503h30v30.002h-30z"/></g><g><path d="m60.993 333.499h30v30.002h-30z"/></g><g><path d="m60.993 393.503h30v30.002h-30z"/></g><g><path d="m301.009 428.834h30v83.144h-30z"/></g><g><path d="m241.005 443.835h30v30.002h-30z"/></g><g><path d="m181.001 353.5h30v45.332h-30z"/></g><g><path d="m120.997 343.5h30v30.002h-30z"/></g><g><path d="m120.997 403.503h30v80.334h-30z"/></g><g><path d="m181.001 428.834h30v83.144h-30z"/></g></g></svg>